PathFileType	4	(X/Y/Z)	C:/Users/empri/Downloads/Take 2024-05-09 02.19.33 PM.trc
DataRate	CameraRate	NumFrames	NumMarkers	Units	OrigDataRate	OrigDataStartFrame	OrigNumFrames
240	240	17	9	mm	240	525	841
Frame#	Time	C7	CLAV	RELB	RFIN	RFRM	RSHO	RUPA	RWRA	RWRB
X1	Y1	Z1	X2	Y2	Z2	X3	Y3	Z3	X4	Y4	Z4	X5	Y5	Z5	X6	Y6	Z6	X7	Y7	Z7	X8	Y8	Z8	X9	Y9	Z9
525	2.188	-147.874	1553.9	-92.6038	21.8774	1389.02	-142.984	142.019	1511.55	283.259	426.408	1487.34	448.9	208.136	1496.41	389.145	-30.2735	1550.4	23.299	28.4351	1517.45	165.564	357.687	1461.21	398.864	302.873	1448.65	475.385
526	2.192	-147.873	1553.86	-92.4719	21.8657	1388.88	-142.998	142.783	1508.86	283.273	427.22	1481.74	448.183	208.935	1492.79	388.899	-29.9819	1550.03	23.6001	28.8721	1516.23	165.76	358.205	1456.39	398.198	303.411	1443.96	474.742
527	2.196	-147.869	1553.79	-92.3414	21.8596	1388.74	-143.009	143.459	1506.22	283.228	428.034	1476.16	447.526	209.762	1489.13	388.627	-29.67	1549.65	23.921	29.3423	1514.96	166.003	358.727	1451.6	397.467	303.978	1439.18	474.078
528	2.2	-147.881	1553.74	-92.1905	21.8488	1388.59	-143.024	144.17	1503.51	283.225	428.823	1470.56	446.791	210.561	1485.48	388.362	-29.4013	1549.25	24.2271	29.7715	1513.72	166.156	359.286	1446.82	396.808	304.569	1434.42	473.462
529	2.204	-147.889	1553.69	-92.0458	21.8319	1388.44	-143.052	144.967	1500.85	283.145	429.525	1464.95	446.069	211.356	1481.79	388.034	-29.1384	1548.87	24.5179	30.1822	1512.47	166.362	359.754	1442	396.028	305.106	1429.62	472.755
530	2.208	-147.926	1553.63	-91.9079	21.8231	1388.28	-143.054	145.715	1498.19	283.034	430.276	1459.27	445.257	212.149	1478.13	387.712	-28.812	1548.44	24.8247	30.586	1511.23	166.522	360.222	1437.14	395.269	305.619	1424.8	472.036
531	2.212	-147.947	1553.58	-91.7783	21.8073	1388.11	-143.079	146.512	1495.57	282.867	431.002	1453.55	444.434	213.014	1474.44	387.406	-28.4671	1548.02	25.1705	30.973	1510	166.705	360.715	1432.28	394.433	306.175	1419.93	471.259
532	2.217	-147.971	1553.5	-91.5884	21.7988	1387.89	-143.081	147.479	1492.23	282.705	431.834	1446.42	443.399	214.029	1469.76	386.935	-28.0638	1547.48	25.5769	31.467	1508.46	166.949	361.298	1426.17	393.371	306.754	1413.84	470.196
533	2.221	-147.998	1553.42	-91.4427	21.767	1387.73	-143.099	148.25	1489.55	282.573	432.452	1440.59	442.457	214.685	1466.04	386.584	-27.7723	1547.04	25.9054	31.9088	1507.22	167.063	361.697	1421.17	392.502	307.239	1408.98	469.403
534	2.225	-148.026	1553.34	-91.2729	21.744	1387.59	-143.116	148.947	1486.89	282.46	433.041	1434.86	441.544	215.426	1462.33	386.177	-27.4318	1546.58	26.2241	32.2968	1506	167.22	362.062	1416.27	391.584	307.623	1404.16	468.5
535	2.229	-148.039	1553.27	-91.1167	21.7235	1387.44	-143.144	149.707	1484.17	282.248	433.594	1429.09	440.475	216.157	1458.58	385.767	-27.076	1546.16	26.5456	32.7079	1504.76	167.31	362.428	1411.33	390.616	308.061	1399.31	467.523
536	2.233	-148.036	1553.2	-90.9396	21.7021	1387.29	-143.171	150.426	1481.45	282.053	434.163	1423.26	439.422	216.869	1454.89	385.311	-26.7765	1545.72	26.8882	33.142	1503.48	167.417	362.74	1406.39	389.637	308.39	1394.49	466.582
537	2.237	-148.016	1553.12	-90.7611	21.6828	1387.14	-143.209	151.12	1478.71	281.823	434.596	1417.5	438.32	217.486	1451.14	384.872	-26.4782	1545.31	27.2374	33.6117	1502.21	167.492	362.95	1401.48	388.632	308.765	1389.75	465.708
538	2.242	-147.974	1553.03	-90.5415	21.6733	1386.96	-143.275	151.95	1475.3	281.57	435.18	1410.24	436.902	218.317	1446.51	384.247	-26.0582	1544.77	27.6506	34.1941	1500.56	167.587	363.224	1395.36	387.325	309.105	1383.81	464.487
539	2.246	-147.922	1552.96	-90.3679	21.6752	1386.83	-143.335	152.638	1472.52	281.294	435.549	1404.46	435.702	218.912	1442.75	383.769	-25.7179	1544.33	27.978	34.6715	1499.2	167.696	363.303	1390.53	386.21	309.378	1379.08	463.518
540	2.25	-147.864	1552.89	-90.1697	21.682	1386.68	-143.38	153.192	1469.68	281.047	435.924	1398.67	434.497	219.486	1438.98	383.184	-25.3623	1543.93	28.2577	35.188	1497.87	167.814	363.456	1385.69	385.095	309.564	1374.33	462.546
541	2.254	-147.778	1552.83	-90.0013	21.6978	1386.55	-143.423	153.787	1466.87	280.737	436.247	1392.88	433.214	220.02	1435.21	382.65	-24.9992	1543.55	28.5498	35.6282	1496.47	167.985	363.618	1380.63	384.008	309.75	1369.55	461.526
